# xmcd
#
# Track frame offsets: 
#        150
#        10288
#        25244
#        35609
#        44885
#        55556
#        66124
#        75788
#        88753
#        102560
#        110201
#        125106
#
# Disc length: 1820 seconds
#
# Revision: 0
# Processed by: cddbd v1.5.2PL0 Copyright (c) Steve Scherf et al.
# Submitted via: ExactAudioCopy v0.99pb4
#
DISCID=a3071a0c
DTITLE=Sizemore, Charlie - Gravel Road
DYEAR=1998
DGENRE=Bluegrass
TTITLE0=Gravel Road
TTITLE1=Walk Softly On The Bridges
TTITLE2=Don't Just Stand There
TTITLE3=Fast Express
TTITLE4=Sidewalk Ballerina
TTITLE5=You Never Cross My Mind
TTITLE6=Down In The Quater
TTITLE7=The Boy You Left Behind
TTITLE8=I Take The Chance
TTITLE9=Snowflake Reel
TTITLE10=Once Upon A Time
TTITLE11=Go And Break Another Heart
EXTD=
EXTT0=
EXTT1=
EXTT2=
EXTT3=
EXTT4=
EXTT5=
EXTT6=
EXTT7=
EXTT8=
EXTT9=
EXTT10=
EXTT11=
PLAYORDER=
